<?xml version="1.0" encoding="UTF-8" standalone="no"?>
<!-- Created with Inkscape (http://www.inkscape.org/) -->

<svg
   xmlns:dc="http://purl.org/dc/elements/1.1/"
   xmlns:cc="http://creativecommons.org/ns#"
   xmlns:rdf="http://www.w3.org/1999/02/22-rdf-syntax-ns#"
   xmlns:svg="http://www.w3.org/2000/svg"
   xmlns="http://www.w3.org/2000/svg"
   version="1.1"
   width="50"
   height="50"
   viewBox="0 0 99.999998 100"
   id="Capa_1"
   xml:space="preserve"><metadata
     id="metadata3124"><rdf:RDF><cc:Work
         rdf:about=""><dc:format>image/svg+xml</dc:format><dc:type
           rdf:resource="http://purl.org/dc/dcmitype/StillImage" /><dc:title></dc:title></cc:Work></rdf:RDF></metadata><defs
     id="defs3122" /><path
     d="m 67.975077,43.240825 c 1.94272,-1.342335 4.23485,-1.914002 6.478062,-1.653496 L 78.625319,37.265846 100.00899,15.116934 85.697155,0.29698631 60.13781,26.767382 c 0.258563,2.351798 -0.314469,4.75425 -1.663192,6.79127 z"
     id="path3084"
     style="fill:#000000" /><polygon
     points="3.19,21.635 0.854,25.316 1.452,25.914 5.136,23.578 6.256,22.195 5.99,21.926 10.642,17.273 9.486,16.133 4.842,20.779 4.577,20.514 "
     transform="matrix(3.4472474,1.2143717,-0.72466991,5.1637143,16.409799,-36.811049)"
     id="polygon3086"
     style="fill:#000000" /><path
     d="M 43.895654,28.805989 C 45.999479,21.21475 44.091541,12.729957 38.187509,6.7597636 32.303066,0.84492248 23.993543,-1.096379 16.514581,0.95167429 L 29.180629,13.730261 25.858387,26.2479 13.439156,29.600697 0.77702638,16.830018 C -1.2445266,24.373812 0.67516519,32.75976 6.5478548,38.690416 12.702622,44.905744 21.572381,46.728432 29.329503,44.182204 l 0.07052,0.07117 52.102001,52.581197 c 2.060731,2.07573 4.76397,3.127433 7.463292,3.127433 2.703239,0 5.398643,-1.051703 7.467209,-3.127433 4.117545,-4.147505 4.117545,-10.888684 0,-15.06782 L 43.895654,28.805989 z M 89.87423,95.047465 c -2.21744,0 -4.015682,-1.822688 -4.015682,-4.06843 0,-2.25365 1.798242,-4.06843 4.015682,-4.06843 2.233111,0 4.039188,1.81478 4.039188,4.06843 0.0039,2.245742 -1.80216,4.06843 -4.039188,4.06843 z"
     id="path3088"
     style="fill:#000000" /><g
     transform="translate(0,74.086002)"
     id="g3090" /><g
     transform="translate(0,74.086002)"
     id="g3092" /><g
     transform="translate(0,74.086002)"
     id="g3094" /><g
     transform="translate(0,74.086002)"
     id="g3096" /><g
     transform="translate(0,74.086002)"
     id="g3098" /><g
     transform="translate(0,74.086002)"
     id="g3100" /><g
     transform="translate(0,74.086002)"
     id="g3102" /><g
     transform="translate(0,74.086002)"
     id="g3104" /><g
     transform="translate(0,74.086002)"
     id="g3106" /><g
     transform="translate(0,74.086002)"
     id="g3108" /><g
     transform="translate(0,74.086002)"
     id="g3110" /><g
     transform="translate(0,74.086002)"
     id="g3112" /><g
     transform="translate(0,74.086002)"
     id="g3114" /><g
     transform="translate(0,74.086002)"
     id="g3116" /><g
     transform="translate(0,74.086002)"
     id="g3118" /></svg>
